<?xml version="1.0" standalone="no"?>
<!DOCTYPE svg PUBLIC "-//W3C//DTD SVG 20010904//EN"
 "http://www.w3.org/TR/2001/REC-SVG-20010904/DTD/svg10.dtd">
<svg version="1.0" xmlns="http://www.w3.org/2000/svg"
 width="1280.000000pt" height="1280.000000pt" viewBox="0 0 1280.000000 1280.000000"
 preserveAspectRatio="xMidYMid meet">
<g transform="translate(0.000000,1280.000000) scale(0.100000,-0.100000)"
fill="#000000" stroke="none">
<path d="M1909 12795 c-3 -2 -50 -9 -105 -15 -515 -57 -1000 -311 -1321 -693
-256 -306 -405 -650 -464 -1072 -18 -125 -26 -9006 -9 -9135 51 -378 90 -521
212 -764 199 -401 493 -695 894 -895 243 -121 386 -160 764 -211 129 -17 9010
-9 9135 9 393 54 703 181 1005 409 100 76 272 248 347 347 189 251 325 546
382 830 48 241 46 16 46 4800 0 4778 2 4562 -46 4795 -87 427 -330 837 -658
1112 -314 263 -651 409 -1081 470 -65 9 -1154 13 -4591 15 -2478 2 -4508 1
-4510 -2z m8932 -1147 c410 -113 694 -397 807 -807 l27 -96 3 -4305 c2 -3900
1 -4314 -13 -4400 -73 -431 -383 -767 -824 -888 l-96 -27 -4350 0 -4350 0
-100 27 c-388 107 -685 406 -793 796 l-27 97 0 4350 0 4350 27 96 c104 379
364 661 718 782 171 59 -146 55 4555 53 l4320 -1 96 -27z"/>
<path d="M4072 10515 c-35 -8 -83 -25 -107 -39 -24 -15 -383 -368 -827 -815
-852 -859 -835 -839 -860 -979 -23 -123 17 -258 102 -342 86 -87 210 -124 343
-102 145 25 148 27 661 528 257 250 472 454 479 451 9 -3 13 -576 17 -2528 5
-2711 2 -2553 56 -2645 32 -56 117 -131 184 -163 76 -36 210 -37 284 -3 113
52 200 160 225 280 8 38 11 758 11 2542 0 1368 3 2495 6 2504 3 9 11 16 16 16
6 0 208 -196 449 -435 241 -239 463 -451 492 -470 88 -59 158 -79 272 -79 87
-1 107 2 155 25 117 55 182 147 202 288 14 94 3 168 -39 266 -24 55 -89 123
-807 843 -430 430 -802 796 -827 813 -26 16 -77 36 -115 44 -86 18 -287 18
-372 0z"/>
<path d="M8363 10501 c-147 -36 -117 -10 -950 -844 -823 -824 -803 -801 -838
-938 -31 -115 -6 -260 60 -351 119 -163 374 -183 562 -44 32 23 251 231 487
462 236 230 435 423 443 427 8 5 18 6 21 2 4 -4 9 -1144 12 -2533 l5 -2527 24
-60 c30 -76 123 -170 207 -211 50 -24 72 -28 144 -29 70 0 94 4 133 24 108 53
185 135 223 236 18 48 19 138 24 2574 4 2026 8 2525 18 2529 7 2 209 -192 450
-431 542 -538 561 -552 767 -552 93 0 105 2 167 33 110 54 171 146 191 287 13
94 0 164 -49 265 -35 72 -65 104 -802 842 -720 722 -771 770 -837 802 -38 19
-94 39 -123 45 -80 17 -256 12 -339 -8z"/>
<path d="M2590 3020 c-163 -29 -288 -140 -326 -289 -47 -186 79 -387 281 -448
58 -17 215 -18 3855 -18 3640 0 3797 1 3855 18 208 63 329 275 270 474 -19 64
-91 161 -146 197 -23 16 -67 38 -98 49 l-56 22 -3795 1 c-2087 1 -3815 -2
-3840 -6z"/>
</g>
</svg>
